<mxfile host="app.diagrams.net" modified="2024-01-26T13:25:42.017Z" agent="Mozilla/5.0 (Windows NT 10.0; Win64; x64) AppleWebKit/537.36 (KHTML, like Gecko) Chrome/120.0.0.0 Safari/537.36 Edg/120.0.0.0" etag="7hw0aVRA1aa1326i2yUS" version="23.0.1" type="github">
  <diagram name="PaginÄƒ-1" id="OMIzhE1DwZs5hQzMnFHi">
    <mxGraphModel dx="2670" dy="1942" grid="1" gridSize="10" guides="1" tooltips="1" connect="1" arrows="1" fold="1" page="1" pageScale="1" pageWidth="827" pageHeight="1169" math="0" shadow="0">
      <root>
        <mxCell id="0" />
        <mxCell id="1" parent="0" />
        <mxCell id="cDJF-RcDrMv5XczDrPMK-1" value="workout_plans" style="rounded=0;whiteSpace=wrap;html=1;" vertex="1" parent="1">
          <mxGeometry x="293.5" y="30" width="120" height="60" as="geometry" />
        </mxCell>
        <mxCell id="cDJF-RcDrMv5XczDrPMK-2" value="feedback" style="rounded=0;whiteSpace=wrap;html=1;" vertex="1" parent="1">
          <mxGeometry x="-50" y="-170" width="120" height="60" as="geometry" />
        </mxCell>
        <mxCell id="cDJF-RcDrMv5XczDrPMK-3" value="gym" style="rounded=0;whiteSpace=wrap;html=1;" vertex="1" parent="1">
          <mxGeometry x="-210" y="30" width="120" height="60" as="geometry" />
        </mxCell>
        <mxCell id="cDJF-RcDrMv5XczDrPMK-4" value="supscription" style="rounded=0;whiteSpace=wrap;html=1;" vertex="1" parent="1">
          <mxGeometry x="-50" y="-80" width="120" height="60" as="geometry" />
        </mxCell>
        <mxCell id="cDJF-RcDrMv5XczDrPMK-5" value="member" style="rounded=0;whiteSpace=wrap;html=1;" vertex="1" parent="1">
          <mxGeometry x="120" y="30" width="120" height="60" as="geometry" />
        </mxCell>
        <mxCell id="cDJF-RcDrMv5XczDrPMK-6" value="equipement" style="rounded=0;whiteSpace=wrap;html=1;" vertex="1" parent="1">
          <mxGeometry x="-520" y="-220" width="120" height="60" as="geometry" />
        </mxCell>
        <mxCell id="cDJF-RcDrMv5XczDrPMK-7" value="trainer" style="rounded=0;whiteSpace=wrap;html=1;" vertex="1" parent="1">
          <mxGeometry x="-520" y="30" width="120" height="60" as="geometry" />
        </mxCell>
        <mxCell id="cDJF-RcDrMv5XczDrPMK-8" value="faclilities" style="rounded=0;whiteSpace=wrap;html=1;" vertex="1" parent="1">
          <mxGeometry x="-350" y="-220" width="120" height="60" as="geometry" />
        </mxCell>
        <mxCell id="cDJF-RcDrMv5XczDrPMK-9" value="members_goals" style="rounded=0;whiteSpace=wrap;html=1;" vertex="1" parent="1">
          <mxGeometry x="294" y="-80" width="120" height="60" as="geometry" />
        </mxCell>
        <mxCell id="cDJF-RcDrMv5XczDrPMK-10" value="classes" style="rounded=0;whiteSpace=wrap;html=1;" vertex="1" parent="1">
          <mxGeometry x="-210" y="230" width="120" height="60" as="geometry" />
        </mxCell>
        <mxCell id="cDJF-RcDrMv5XczDrPMK-11" value="gym_classes" style="rounded=0;whiteSpace=wrap;html=1;" vertex="1" parent="1">
          <mxGeometry x="-210" y="130" width="120" height="60" as="geometry" />
        </mxCell>
        <mxCell id="cDJF-RcDrMv5XczDrPMK-12" value="gym_trainer" style="rounded=0;whiteSpace=wrap;html=1;" vertex="1" parent="1">
          <mxGeometry x="-370" y="30" width="120" height="60" as="geometry" />
        </mxCell>
        <mxCell id="cDJF-RcDrMv5XczDrPMK-13" value="gym_members" style="rounded=0;whiteSpace=wrap;html=1;" vertex="1" parent="1">
          <mxGeometry x="-50" y="30" width="120" height="60" as="geometry" />
        </mxCell>
        <mxCell id="cDJF-RcDrMv5XczDrPMK-14" value="member_classes" style="rounded=0;whiteSpace=wrap;html=1;" vertex="1" parent="1">
          <mxGeometry x="120" y="230" width="120" height="60" as="geometry" />
        </mxCell>
        <mxCell id="cDJF-RcDrMv5XczDrPMK-16" value="" style="edgeStyle=entityRelationEdgeStyle;fontSize=12;html=1;endArrow=ERmany;startArrow=ERmany;rounded=0;entryX=1;entryY=0.5;entryDx=0;entryDy=0;exitX=0;exitY=0.5;exitDx=0;exitDy=0;" edge="1" parent="1" source="cDJF-RcDrMv5XczDrPMK-13" target="cDJF-RcDrMv5XczDrPMK-3">
          <mxGeometry width="100" height="100" relative="1" as="geometry">
            <mxPoint x="-120" y="200" as="sourcePoint" />
            <mxPoint x="-20" y="100" as="targetPoint" />
          </mxGeometry>
        </mxCell>
        <mxCell id="cDJF-RcDrMv5XczDrPMK-17" value="" style="edgeStyle=entityRelationEdgeStyle;fontSize=12;html=1;endArrow=ERmany;startArrow=ERmany;rounded=0;entryX=1;entryY=0.5;entryDx=0;entryDy=0;exitX=0;exitY=0.5;exitDx=0;exitDy=0;" edge="1" parent="1" source="cDJF-RcDrMv5XczDrPMK-5" target="cDJF-RcDrMv5XczDrPMK-13">
          <mxGeometry width="100" height="100" relative="1" as="geometry">
            <mxPoint x="-40" y="70" as="sourcePoint" />
            <mxPoint x="-80" y="70" as="targetPoint" />
          </mxGeometry>
        </mxCell>
        <mxCell id="cDJF-RcDrMv5XczDrPMK-18" value="" style="edgeStyle=entityRelationEdgeStyle;fontSize=12;html=1;endArrow=ERmany;startArrow=ERmany;rounded=0;entryX=1;entryY=0.5;entryDx=0;entryDy=0;exitX=0;exitY=0.5;exitDx=0;exitDy=0;" edge="1" parent="1" source="cDJF-RcDrMv5XczDrPMK-3" target="cDJF-RcDrMv5XczDrPMK-12">
          <mxGeometry width="100" height="100" relative="1" as="geometry">
            <mxPoint x="-210" y="70" as="sourcePoint" />
            <mxPoint x="-70" y="80" as="targetPoint" />
          </mxGeometry>
        </mxCell>
        <mxCell id="cDJF-RcDrMv5XczDrPMK-19" value="" style="edgeStyle=entityRelationEdgeStyle;fontSize=12;html=1;endArrow=ERmany;startArrow=ERmany;rounded=0;entryX=1;entryY=0.5;entryDx=0;entryDy=0;exitX=0;exitY=0.5;exitDx=0;exitDy=0;" edge="1" parent="1" source="cDJF-RcDrMv5XczDrPMK-12" target="cDJF-RcDrMv5XczDrPMK-7">
          <mxGeometry width="100" height="100" relative="1" as="geometry">
            <mxPoint x="-20" y="90" as="sourcePoint" />
            <mxPoint x="-60" y="90" as="targetPoint" />
          </mxGeometry>
        </mxCell>
        <mxCell id="cDJF-RcDrMv5XczDrPMK-20" value="" style="fontSize=12;html=1;endArrow=ERmany;startArrow=ERmany;rounded=0;entryX=0.5;entryY=1;entryDx=0;entryDy=0;exitX=0.5;exitY=0;exitDx=0;exitDy=0;" edge="1" parent="1" source="cDJF-RcDrMv5XczDrPMK-11" target="cDJF-RcDrMv5XczDrPMK-3">
          <mxGeometry width="100" height="100" relative="1" as="geometry">
            <mxPoint x="-10" y="100" as="sourcePoint" />
            <mxPoint x="-50" y="100" as="targetPoint" />
          </mxGeometry>
        </mxCell>
        <mxCell id="cDJF-RcDrMv5XczDrPMK-21" value="" style="fontSize=12;html=1;endArrow=ERmany;startArrow=ERmany;rounded=0;exitX=0.5;exitY=0;exitDx=0;exitDy=0;entryX=0.5;entryY=1;entryDx=0;entryDy=0;" edge="1" parent="1" source="cDJF-RcDrMv5XczDrPMK-10" target="cDJF-RcDrMv5XczDrPMK-11">
          <mxGeometry width="100" height="100" relative="1" as="geometry">
            <mxPoint x="-150.5" y="230" as="sourcePoint" />
            <mxPoint x="-150" y="190" as="targetPoint" />
          </mxGeometry>
        </mxCell>
        <mxCell id="cDJF-RcDrMv5XczDrPMK-23" value="" style="edgeStyle=orthogonalEdgeStyle;fontSize=12;html=1;endArrow=ERoneToMany;rounded=0;exitX=0.5;exitY=1;exitDx=0;exitDy=0;entryX=0;entryY=0.5;entryDx=0;entryDy=0;" edge="1" parent="1" source="cDJF-RcDrMv5XczDrPMK-7" target="cDJF-RcDrMv5XczDrPMK-10">
          <mxGeometry width="100" height="100" relative="1" as="geometry">
            <mxPoint x="-440" y="320" as="sourcePoint" />
            <mxPoint x="-340" y="220" as="targetPoint" />
          </mxGeometry>
        </mxCell>
        <mxCell id="cDJF-RcDrMv5XczDrPMK-25" value="" style="edgeStyle=entityRelationEdgeStyle;fontSize=12;html=1;endArrow=ERmandOne;startArrow=ERmandOne;rounded=0;exitX=1;exitY=0.5;exitDx=0;exitDy=0;entryX=0;entryY=0.5;entryDx=0;entryDy=0;" edge="1" parent="1" source="cDJF-RcDrMv5XczDrPMK-5" target="cDJF-RcDrMv5XczDrPMK-1">
          <mxGeometry width="100" height="100" relative="1" as="geometry">
            <mxPoint x="150" as="sourcePoint" />
            <mxPoint x="250" y="-100" as="targetPoint" />
          </mxGeometry>
        </mxCell>
        <mxCell id="cDJF-RcDrMv5XczDrPMK-26" value="" style="edgeStyle=orthogonalEdgeStyle;fontSize=12;html=1;endArrow=ERmandOne;startArrow=ERmandOne;rounded=0;exitX=0.75;exitY=0;exitDx=0;exitDy=0;entryX=0;entryY=0.5;entryDx=0;entryDy=0;" edge="1" parent="1" source="cDJF-RcDrMv5XczDrPMK-5" target="cDJF-RcDrMv5XczDrPMK-9">
          <mxGeometry width="100" height="100" relative="1" as="geometry">
            <mxPoint x="220" y="-40" as="sourcePoint" />
            <mxPoint x="274" y="-40" as="targetPoint" />
          </mxGeometry>
        </mxCell>
        <mxCell id="cDJF-RcDrMv5XczDrPMK-27" value="" style="fontSize=12;html=1;endArrow=ERmany;startArrow=ERmany;rounded=0;entryX=0.5;entryY=1;entryDx=0;entryDy=0;exitX=0.5;exitY=0;exitDx=0;exitDy=0;" edge="1" parent="1" source="cDJF-RcDrMv5XczDrPMK-14" target="cDJF-RcDrMv5XczDrPMK-5">
          <mxGeometry width="100" height="100" relative="1" as="geometry">
            <mxPoint x="-360" y="70" as="sourcePoint" />
            <mxPoint x="-390" y="70" as="targetPoint" />
          </mxGeometry>
        </mxCell>
        <mxCell id="cDJF-RcDrMv5XczDrPMK-28" value="" style="fontSize=12;html=1;endArrow=ERmany;startArrow=ERmany;rounded=0;entryX=1;entryY=0.5;entryDx=0;entryDy=0;exitX=0;exitY=0.5;exitDx=0;exitDy=0;" edge="1" parent="1" source="cDJF-RcDrMv5XczDrPMK-14" target="cDJF-RcDrMv5XczDrPMK-10">
          <mxGeometry width="100" height="100" relative="1" as="geometry">
            <mxPoint x="190" y="240" as="sourcePoint" />
            <mxPoint x="190" y="100" as="targetPoint" />
          </mxGeometry>
        </mxCell>
        <mxCell id="cDJF-RcDrMv5XczDrPMK-29" value="" style="edgeStyle=orthogonalEdgeStyle;fontSize=12;html=1;endArrow=ERoneToMany;rounded=0;exitX=0.5;exitY=0;exitDx=0;exitDy=0;entryX=0;entryY=0.5;entryDx=0;entryDy=0;" edge="1" parent="1" source="cDJF-RcDrMv5XczDrPMK-3" target="cDJF-RcDrMv5XczDrPMK-4">
          <mxGeometry width="100" height="100" relative="1" as="geometry">
            <mxPoint x="-130.52999999999997" y="150" as="sourcePoint" />
            <mxPoint x="119.47000000000003" y="320" as="targetPoint" />
          </mxGeometry>
        </mxCell>
        <mxCell id="cDJF-RcDrMv5XczDrPMK-30" value="" style="edgeStyle=orthogonalEdgeStyle;fontSize=12;html=1;endArrow=ERoneToMany;rounded=0;exitX=0.5;exitY=0;exitDx=0;exitDy=0;entryX=1;entryY=0.5;entryDx=0;entryDy=0;" edge="1" parent="1" source="cDJF-RcDrMv5XczDrPMK-5" target="cDJF-RcDrMv5XczDrPMK-4">
          <mxGeometry width="100" height="100" relative="1" as="geometry">
            <mxPoint x="-140" y="40" as="sourcePoint" />
            <mxPoint x="-40" y="-40" as="targetPoint" />
            <Array as="points">
              <mxPoint x="150" y="30" />
              <mxPoint x="150" y="-50" />
            </Array>
          </mxGeometry>
        </mxCell>
        <mxCell id="cDJF-RcDrMv5XczDrPMK-31" value="gym_faclilities" style="rounded=0;whiteSpace=wrap;html=1;" vertex="1" parent="1">
          <mxGeometry x="-280" y="-130" width="120" height="60" as="geometry" />
        </mxCell>
        <mxCell id="cDJF-RcDrMv5XczDrPMK-32" value="gym_equipement" style="rounded=0;whiteSpace=wrap;html=1;" vertex="1" parent="1">
          <mxGeometry x="-440" y="-130" width="120" height="60" as="geometry" />
        </mxCell>
        <mxCell id="cDJF-RcDrMv5XczDrPMK-34" value="" style="fontSize=12;html=1;endArrow=ERmany;startArrow=ERmany;rounded=0;entryX=0.5;entryY=1;entryDx=0;entryDy=0;exitX=0.25;exitY=0;exitDx=0;exitDy=0;" edge="1" parent="1" source="cDJF-RcDrMv5XczDrPMK-3" target="cDJF-RcDrMv5XczDrPMK-31">
          <mxGeometry width="100" height="100" relative="1" as="geometry">
            <mxPoint x="190" y="240" as="sourcePoint" />
            <mxPoint x="190" y="100" as="targetPoint" />
          </mxGeometry>
        </mxCell>
        <mxCell id="cDJF-RcDrMv5XczDrPMK-35" value="" style="fontSize=12;html=1;endArrow=ERmany;startArrow=ERmany;rounded=0;entryX=0.599;entryY=1.042;entryDx=0;entryDy=0;exitX=0.25;exitY=0;exitDx=0;exitDy=0;entryPerimeter=0;" edge="1" parent="1" source="cDJF-RcDrMv5XczDrPMK-31" target="cDJF-RcDrMv5XczDrPMK-8">
          <mxGeometry width="100" height="100" relative="1" as="geometry">
            <mxPoint x="-170" y="40" as="sourcePoint" />
            <mxPoint x="-210" y="-60" as="targetPoint" />
          </mxGeometry>
        </mxCell>
        <mxCell id="cDJF-RcDrMv5XczDrPMK-36" value="" style="fontSize=12;html=1;endArrow=ERmany;startArrow=ERmany;rounded=0;entryX=0.5;entryY=1;entryDx=0;entryDy=0;exitX=0.5;exitY=0;exitDx=0;exitDy=0;" edge="1" parent="1" source="cDJF-RcDrMv5XczDrPMK-32" target="cDJF-RcDrMv5XczDrPMK-6">
          <mxGeometry width="100" height="100" relative="1" as="geometry">
            <mxPoint x="-240" y="-120" as="sourcePoint" />
            <mxPoint x="-268" y="-147" as="targetPoint" />
          </mxGeometry>
        </mxCell>
        <mxCell id="cDJF-RcDrMv5XczDrPMK-37" value="" style="fontSize=12;html=1;endArrow=ERmany;startArrow=ERmany;rounded=0;entryX=0.75;entryY=1;entryDx=0;entryDy=0;exitX=0;exitY=0;exitDx=0;exitDy=0;" edge="1" parent="1" source="cDJF-RcDrMv5XczDrPMK-3" target="cDJF-RcDrMv5XczDrPMK-32">
          <mxGeometry width="100" height="100" relative="1" as="geometry">
            <mxPoint x="-370" y="-120" as="sourcePoint" />
            <mxPoint x="-450" y="-150" as="targetPoint" />
          </mxGeometry>
        </mxCell>
        <mxCell id="cDJF-RcDrMv5XczDrPMK-38" value="" style="edgeStyle=orthogonalEdgeStyle;fontSize=12;html=1;endArrow=ERmandOne;startArrow=ERmandOne;rounded=0;entryX=0.5;entryY=0;entryDx=0;entryDy=0;exitX=1;exitY=0.5;exitDx=0;exitDy=0;" edge="1" parent="1" source="cDJF-RcDrMv5XczDrPMK-2" target="cDJF-RcDrMv5XczDrPMK-5">
          <mxGeometry width="100" height="100" relative="1" as="geometry">
            <mxPoint x="-10" y="70" as="sourcePoint" />
            <mxPoint x="90" y="-30" as="targetPoint" />
          </mxGeometry>
        </mxCell>
        <mxCell id="cDJF-RcDrMv5XczDrPMK-39" value="" style="edgeStyle=orthogonalEdgeStyle;fontSize=12;html=1;endArrow=ERmandOne;startArrow=ERmandOne;rounded=0;exitX=0;exitY=0.5;exitDx=0;exitDy=0;entryX=0;entryY=0.5;entryDx=0;entryDy=0;" edge="1" parent="1" source="cDJF-RcDrMv5XczDrPMK-7" target="cDJF-RcDrMv5XczDrPMK-2">
          <mxGeometry width="100" height="100" relative="1" as="geometry">
            <mxPoint x="80" y="-130" as="sourcePoint" />
            <mxPoint x="-30" y="-180" as="targetPoint" />
            <Array as="points">
              <mxPoint x="-600" y="60" />
              <mxPoint x="-600" y="-300" />
              <mxPoint x="-80" y="-300" />
              <mxPoint x="-80" y="-140" />
            </Array>
          </mxGeometry>
        </mxCell>
        <mxCell id="cDJF-RcDrMv5XczDrPMK-40" value="" style="edgeStyle=orthogonalEdgeStyle;fontSize=12;html=1;endArrow=ERmandOne;startArrow=ERmandOne;rounded=0;entryX=0.5;entryY=1;entryDx=0;entryDy=0;exitX=0.5;exitY=0;exitDx=0;exitDy=0;" edge="1" parent="1" source="cDJF-RcDrMv5XczDrPMK-2" target="cDJF-RcDrMv5XczDrPMK-10">
          <mxGeometry width="100" height="100" relative="1" as="geometry">
            <mxPoint x="90" y="-120" as="sourcePoint" />
            <mxPoint x="200" y="50" as="targetPoint" />
            <Array as="points">
              <mxPoint x="10" y="-250" />
              <mxPoint x="570" y="-250" />
              <mxPoint x="570" y="340" />
              <mxPoint x="-150" y="340" />
            </Array>
          </mxGeometry>
        </mxCell>
      </root>
    </mxGraphModel>
  </diagram>
</mxfile>
